#!OML:ASF H:\Terrain\Patient Classification 1\Walking\liu\liu.ASF
:FULLY-SPECIFIED
:DEGREES
176
root 8.67342 16.8265 -7.08556 5.15127 -1.28572 -3.40184
lowerback -4.35607 0.635295 -0.112236
upperback 0.187275 0.762759 3.42043
thorax 2.58875 0.356974 3.64204
lowerneck -19.4717 -4.67779 -12.7114
upperneck 19.7463 -5.85675 13.2182
head 10.3139 -2.18132 6.02389
rclavicle 7.45443e-016 1.11319e-014
rhumerus -30.451 14.2117 -85.0937
rradius 34.011
rwrist -15.4624
rhand -28.9875 -25.4776
rfingers 7.12502
rthumb -2.33962 -55.4445
lclavicle 7.45443e-016 1.11319e-014
lhumerus -43.2296 -14.4938 95.8974
lradius 27.8565
lwrist 3.23368
lhand -8.51668 -25.2161
lfingers 7.12502
lthumb 17.4116 4.02412
rfemur -12.6074 1.32814 30.5415
rtibia 25.5382
rfoot -15.7196 1.86842
rtoes -14.7646
lfemur -30.3348 13.2953 -16.1515
ltibia 65.7182
lfoot -10.0913 10.9646
ltoes -0.364799
177
root 8.675 16.8218 -6.95987 5.09116 -1.36634 -3.54236
lowerback -4.16163 0.639616 -0.0495326
upperback 0.23807 0.764737 3.5287
thorax 2.53124 0.358218 3.71659
lowerneck -19.4548 -4.68222 -12.895
upperneck 19.7035 -5.83112 13.327
head 10.3013 -2.17242 6.09942
rclavicle 6.01324e-015 9.54166e-015
rhumerus -29.8203 14.5854 -84.876
rradius 34.2891
rwrist -15.3613
rhand -28.8456 -25.4768
rfingers 7.12502
rthumb -2.20259 -55.4452
lclavicle 6.01324e-015 9.54166e-015
lhumerus -43.841 -13.857 95.7083
lradius 27.9027
lwrist 3.05142
lhand -7.9498 -24.8941
lfingers 7.12502
lthumb 17.9571 4.29691
rfemur -11.9466 1.55297 30.6941
rtibia 25.6763
rfoot -16.3876 1.72601
rtoes -13.5712
lfemur -31.3909 13.1909 -16.1881
ltibia 64.9424
lfoot -10.6327 10.8451
ltoes -4.84925
178
root 8.69054 16.8248 -6.80626 4.88423 -1.67043 -3.10698
lowerback -4.29827 0.723284 -0.276026
upperback 0.515113 0.88298 3.33675
thorax 2.88564 0.409254 3.65932
lowerneck -19.4833 -4.69989 -13.0403
upperneck 19.4256 -5.83726 13.5546
head 10.2217 -2.16048 6.19909
rclavicle 8.05078e-015 2.54444e-014
rhumerus -29.0978 14.9213 -84.6702
rradius 34.6511
rwrist -15.2855
rhand -28.7165 -24.1868
rfingers 7.12502
rthumb -2.07786 -54.1564
lclavicle 8.05078e-015 2.54444e-014
lhumerus -44.2888 -13.6485 95.577
lradius 28.0823
lwrist 3.3427
lhand -8.08287 -24.5647
lfingers 7.12502
lthumb 17.8291 4.63797
rfemur -10.9749 1.22426 30.1032
rtibia 25.6606
rfoot -16.9714 2.20915
rtoes -14.4406
lfemur -31.7825 12.9896 -16.8376
ltibia 63.5843
lfoot -12.231 10.5373
ltoes 4.16385
179
root 8.66444 16.7494 -6.79557 5.86256 -1.24666 -5.64372
lowerback -3.75108 0.729478 1.83493
upperback 0.00459617 0.80465 4.10415
thorax 2.07604 0.400697 3.24244
lowerneck -19.6379 -4.69814 -12.9849
upperneck 19.4329 -5.83257 13.5503
head 10.2508 -2.14931 6.18923
rclavicle 6.85807e-015 1.11319e-014
rhumerus -28.4036 15.4015 -84.6239
rradius 34.9605
rwrist -15.5481
rhand -29.0668 -23.5684
rfingers 7.12502
rthumb -2.41621 -53.5345
lclavicle 6.85807e-015 1.11319e-014
lhumerus -44.7477 -13.3535 95.4637
lradius 27.9929
lwrist 3.96037
lhand -8.31316 -23.855
lfingers 7.12502
lthumb 17.6075 5.36772
rfemur -12.0958 3.45501 33.2279
rtibia 25.5999
rfoot -16.8125 -0.410142
rtoes -17.2063
lfemur -35.2659 12.7465 -14.1312
ltibia 62.8307
lfoot -12.1049 10.1023
ltoes -4.45887
180
root 8.6872 16.8006 -6.59366 5.59199 -1.79457 -4.42283
lowerback -4.29049 0.850557 0.87364
upperback 0.323914 0.988983 3.67576
thorax 2.69089 0.479953 3.36595
lowerneck -19.7653 -4.68718 -12.9154
upperneck 19.5145 -5.82365 13.5206
head 10.2992 -2.13875 6.17094
rclavicle -1.77912e-014 -2.38542e-015
rhumerus -27.7783 15.9138 -84.5785
rradius 35.4341
rwrist -15.9105
rhand -29.1324 -24.363
rfingers 7.12502
rthumb -2.47962 -54.3283
lclavicle -1.77912e-014 -2.38542e-015
lhumerus -45.0765 -12.9216 95.1875
lradius 27.67
lwrist 4.03733
lhand -8.35832 -23.8703
lfingers 7.12502
lthumb 17.564 5.35636
rfemur -10.768 2.45174 31.6771
rtibia 25.2996
rfoot -17.2246 1.02184
rtoes -18.4435
lfemur -34.5783 12.477 -15.6705
ltibia 60.7776
lfoot -13.6661 10.1142
ltoes -7.06408
181
root 8.69638 16.8194 -6.44198 5.55327 -2.07208 -3.84044
lowerback -4.614 1.00883 0.461043
upperback 0.557224 1.21374 3.4034
thorax 3.09901 0.583594 3.3427
lowerneck -19.8802 -4.72073 -12.8661
upperneck 19.395 -5.86799 13.5504
head 10.2849 -2.14806 6.16219
rclavicle 1.03865e-014 -4.77083e-015
rhumerus -26.9961 15.8543 -84.3799
rradius 35.8002
rwrist -15.8217
rhand -28.9568 -24.4903
rfingers 7.12502
rthumb -2.31004 -54.4575
lclavicle 1.03865e-014 -4.77083e-015
lhumerus -45.3141 -13.1375 95.1421
lradius 27.4095
lwrist 4.86486
lhand -8.3875 -24.3499
lfingers 7.12502
lthumb 17.536 4.8792
rfemur -9.76227 2.19528 30.9378
rtibia 24.6569
rfoot -17.2673 1.36891
rtoes -17.8047
lfemur -34.8126 12.334 -16.5394
ltibia 58.9054
lfoot -14.4033 10.2407
ltoes -4.07018
182
root 8.70042 16.831 -6.31662 5.69891 -2.24409 -3.87369
lowerback -4.57456 1.14048 0.537573
upperback 0.516283 1.38841 3.3724
thorax 3.02759 0.673072 3.27763
lowerneck -19.7274 -4.76754 -12.9178
upperneck 19.1898 -5.90792 13.5163
head 10.1898 -2.1793 6.1432
rclavicle 6.11263e-015 6.36111e-015
rhumerus -26.4578 15.7196 -84.2086
rradius 36.0768
rwrist -15.7067
rhand -29.212 -24.4308
rfingers 7.12502
rthumb -2.55642 -54.3952
lclavicle 6.11263e-015 6.36111e-015
lhumerus -45.742 -12.9141 95.0384
lradius 27.1664
lwrist 5.12864
lhand -8.6384 -24.9523
lfingers 7.12502
lthumb 17.2945 4.29818
rfemur -8.98827 2.43856 30.9451
rtibia 23.8422
rfoot -16.9077 1.35298
rtoes -15.3737
lfemur -35.4568 12.1318 -16.6429
ltibia 56.6166
lfoot -14.1167 10.4428
ltoes 2.83527
